<svg width="89" height="66" viewBox="0 0 89 66" fill="none" xmlns="http://www.w3.org/2000/svg">
<path d="M56.0537 9.10232C68.8834 9.10232 79.2694 19.5931 79.2694 32.5524C79.2694 45.5116 68.8834 56.0024 56.0537 56.0024H32.2271C19.3973 56.0024 9.01138 45.5116 9.01138 32.5524C9.01138 19.5931 19.3973 9.10232 32.2271 9.10232H56.0537ZM56.0537 0H32.2271C14.5098 0 3.05176e-05 14.502 3.05176e-05 32.5524C3.05176e-05 50.4484 14.3571 65.1047 32.2271 65.1047H56.0537C73.7709 65.1047 88.2807 50.6027 88.2807 32.5524C88.2807 14.6563 73.7709 0 56.0537 0Z" fill="#FBE288"/>
<path d="M33.9075 22.6788H30.7001C27.0344 22.6788 23.9797 25.7644 23.9797 29.467V35.6381C23.9797 39.3407 27.0344 42.4262 30.7001 42.4262H33.9075C37.5731 42.4262 40.6278 39.3407 40.6278 35.6381V29.467C40.6278 25.7644 37.7259 22.6788 33.9075 22.6788Z" fill="#FBE288"/>
<path d="M59.1085 22.6788H55.901C52.2354 22.6788 49.1807 25.7644 49.1807 29.467V35.6381C49.1807 39.3407 52.2354 42.4262 55.901 42.4262H59.1085C62.7741 42.4262 65.8288 39.3407 65.8288 35.6381V29.467C65.8288 25.7644 62.7741 22.6788 59.1085 22.6788Z" fill="#FBE288"/>
</svg>
