<svg width="38" height="31" viewBox="0 0 38 31" fill="none" xmlns="http://www.w3.org/2000/svg">
<path d="M38 3.64706C36.6013 4.28529 35.0937 4.70471 33.5316 4.90529C35.13 3.93882 36.3652 2.40706 36.9465 0.565294C35.4388 1.47706 33.7677 2.11529 32.0057 2.48C30.5707 0.911765 28.5545 0 26.2658 0C21.9971 0 18.5096 3.50118 18.5096 7.82294C18.5096 8.44294 18.5822 9.04471 18.7094 9.61C12.2428 9.28176 6.4847 6.16353 2.65201 1.44059C1.97992 2.58941 1.59847 3.93882 1.59847 5.36118C1.59847 8.07824 2.9608 10.4853 5.06788 11.8529C3.7782 11.8529 2.57935 11.4882 1.52581 10.9412V10.9959C1.52581 14.7888 4.21415 17.9618 7.77438 18.6729C6.63134 18.987 5.43134 19.0307 4.26864 18.8006C4.762 20.3551 5.72822 21.7153 7.03148 22.69C8.33475 23.6648 9.90951 24.205 11.5344 24.2347C8.78002 26.4237 5.36577 27.607 1.85277 27.59C1.23518 27.59 0.617591 27.5535 0 27.4806C3.45124 29.7053 7.55641 31 11.9522 31C26.2658 31 34.131 19.0741 34.131 8.73471C34.131 8.38824 34.131 8.06 34.1128 7.71353C35.6386 6.61941 36.9465 5.23353 38 3.64706Z" fill="#B7B8BD"/>
</svg>
